C:\Users\lingh\OneDrive - KTH\ExMaterials\7-Doctor\Research\2-simulation\PredSimResults\DHondt_2023_3seg0.2weak\DHondt_2023_3seg_v1.mot
version=1
nRows=4
nColumns=128
inDegrees=yes
endheader
                time	         pelvis_tilt	         pelvis_list	     pelvis_rotation	           pelvis_tx	           pelvis_ty	           pelvis_tz	       hip_flexion_r	     hip_adduction_r	      hip_rotation_r	        knee_angle_r	       ankle_angle_r	    subtalar_angle_r	         mtj_angle_r	         mtp_angle_r	       hip_flexion_l	     hip_adduction_l	      hip_rotation_l	        knee_angle_l	       ankle_angle_l	    subtalar_angle_l	         mtj_angle_l	         mtp_angle_l	    lumbar_extension	      lumbar_bending	     lumbar_rotation	          arm_flex_r	           arm_add_r	           arm_rot_r	        elbow_flex_r	          arm_flex_l	           arm_add_l	           arm_rot_l	        elbow_flex_l	glut_med1_r/activation	glut_med2_r/activation	glut_med3_r/activation	glut_min1_r/activation	glut_min2_r/activation	glut_min3_r/activation	semimem_r/activation	semiten_r/activation	bifemlh_r/activation	bifemsh_r/activation	    sar_r/activation	add_long_r/activation	add_brev_r/activation	add_mag1_r/activation	add_mag2_r/activation	add_mag3_r/activation	    tfl_r/activation	   pect_r/activation	   grac_r/activation	glut_max1_r/activation	glut_max2_r/activation	glut_max3_r/activation	iliacus_r/activation	  psoas_r/activation	quad_fem_r/activation	    gem_r/activation	   peri_r/activation	rect_fem_r/activation	vas_med_r/activation	vas_int_r/activation	vas_lat_r/activation	med_gas_r/activation	lat_gas_r/activation	 soleus_r/activation	tib_post_r/activation	flex_dig_r/activation	flex_hal_r/activation	tib_ant_r/activation	per_brev_r/activation	per_long_r/activation	per_tert_r/activation	ext_dig_r/activation	ext_hal_r/activation	    FDB_r/activation	glut_med1_l/activation	glut_med2_l/activation	glut_med3_l/activation	glut_min1_l/activation	glut_min2_l/activation	glut_min3_l/activation	semimem_l/activation	semiten_l/activation	bifemlh_l/activation	bifemsh_l/activation	    sar_l/activation	add_long_l/activation	add_brev_l/activation	add_mag1_l/activation	add_mag2_l/activation	add_mag3_l/activation	    tfl_l/activation	   pect_l/activation	   grac_l/activation	glut_max1_l/activation	glut_max2_l/activation	glut_max3_l/activation	iliacus_l/activation	  psoas_l/activation	quad_fem_l/activation	    gem_l/activation	   peri_l/activation	rect_fem_l/activation	vas_med_l/activation	vas_int_l/activation	vas_lat_l/activation	med_gas_l/activation	lat_gas_l/activation	 soleus_l/activation	tib_post_l/activation	flex_dig_l/activation	flex_hal_l/activation	tib_ant_l/activation	per_brev_l/activation	per_long_l/activation	per_tert_l/activation	ext_dig_l/activation	ext_hal_l/activation	    FDB_l/activation	 ercspn_r/activation	 ercspn_l/activation	 intobl_r/activation	 intobl_l/activation	 extobl_r/activation	 extobl_l/activation	
          1.71274766	         -6.93201320	          3.57533436	        -12.60091584	          2.26902583	          0.89541522	          0.01481965	         -8.63253299	         -4.01966047	          0.58782393	        -17.18581496	          7.24365313	         -0.27509216	          0.43237844	         27.05269976	         33.99408596	         -2.41615593	         -6.14106293	        -10.82285914	          7.76709486	          1.78754040	         -2.84196466	         10.76489915	          2.77908431	          0.98891520	          1.88833639	          4.77362497	        -13.44970686	         17.88811104	         93.26730928	        -17.69277198	        -13.56041124	         17.26578136	         10.47814188	          0.24913353	          0.07258549	          0.05000361	          0.16107226	          0.08215183	          0.05475576	          0.05000060	          0.05000016	          0.05000008	          0.05000011	          0.05000122	          0.24759391	          0.06292777	          0.05000124	          0.05001065	          0.06069714	          0.07405381	          0.05000651	          0.05000037	          0.05000477	          0.05000086	          0.05000035	          0.12408411	          0.50366009	          0.05000007	          0.05000019	          0.05000042	          0.30462958	          0.16326124	          0.16590025	          0.14204050	          0.36227967	          0.47920183	          0.23052526	          0.52095330	          0.39782058	          0.54170094	          0.05000000	          0.30079024	          0.26786208	          0.05000002	          0.05000002	          0.05000013	          0.70416196	          0.05004815	          0.05000233	          0.05000083	          0.05474927	          0.05031839	          0.05001297	          0.14522268	          0.07496238	          0.14434465	          0.14192328	          0.10436168	          0.08224370	          0.05000019	          0.05000010	          0.05000009	          0.22789841	          0.05475659	          0.05006137	          0.21407139	          0.05000081	          0.05000009	          0.22936688	          0.14273718	          0.14590773	          0.05099540	          0.08278208	          0.05000802	          0.05000002	          0.05000004	          0.05000003	          0.05000003	          0.05996796	          0.05996797	          0.05840275	          0.05072563	          0.05000024	          0.05000024	          0.44535662	          0.14857200	          0.10863307	          0.29547226	          0.59355493	          0.08167566	          0.36658047	          0.05000000	          0.10771989	          0.05000001	          0.20810192	          0.05000001	          0.13015928	
          1.71845682	         -6.93856460	          3.28735459	        -12.70753702	          2.27805060	          0.89509687	          0.01550892	         -9.05524853	         -3.87867944	          0.26390626	        -17.31089453	          6.32313520	         -0.15416608	         -0.17870740	         28.94213626	         34.08902533	         -2.66656685	         -5.97304658	        -11.58719299	          7.53391500	          1.60471503	         -2.55370613	         10.28339418	          2.82515530	          0.90728400	          1.86126213	          4.92443735	        -13.45254042	         18.15913338	         94.58679035	        -18.62840289	        -13.56486415	         16.81858279	         10.94367859	          0.22748767	          0.06627892	          0.05000007	          0.14708444	          0.07501538	          0.05000030	          0.05000976	          0.05000028	          0.05000008	          0.05475741	          0.05000315	          0.28225285	          0.07223136	          0.05000017	          0.05000034	          0.07183036	          0.06762236	          0.05475315	          0.05000022	          0.05000128	          0.05000025	          0.05000008	          0.11330307	          0.54279003	          0.05000002	          0.05000009	          0.05000020	          0.27816178	          0.17954411	          0.18185503	          0.15624717	          0.34247573	          0.46257196	          0.21049601	          0.50805410	          0.43656794	          0.55089147	          0.05000000	          0.27465600	          0.24458882	          0.05074127	          0.05000005	          0.05000017	          0.65640994	          0.05000043	          0.05000060	          0.05000149	          0.05000057	          0.05000070	          0.05000175	          0.13260497	          0.06844926	          0.13180324	          0.12959224	          0.09530446	          0.08626171	          0.05043935	          0.05000922	          0.05000602	          0.26605757	          0.05000710	          0.08625645	          0.19547348	          0.05000124	          0.05000013	          0.29074942	          0.13033543	          0.13323050	          0.05000045	          0.07558974	          0.05000033	          0.05000001	          0.05000001	          0.05000001	          0.05000001	          0.05475763	          0.05475765	          0.05475762	          0.06506404	          0.05000010	          0.05000015	          0.45254133	          0.13566336	          0.11835877	          0.31122713	          0.59445451	          0.09308478	          0.33473006	          0.05000000	          0.09992284	          0.05000000	          0.19002094	          0.05000001	          0.11885036	
          1.72416598	         -6.94426496	          2.99276431	        -12.79830970	          2.28716830	          0.89478863	          0.01617983	         -9.44471489	         -3.73955468	         -0.06189435	        -17.49243469	          5.34531014	         -0.00941196	         -0.81547188	         30.91591540	         34.17156519	         -2.90465193	         -5.79878439	        -12.47544349	          7.17247957	          1.42658598	         -2.18542987	          9.82511298	          2.87601889	          0.82288171	          1.83296397	          5.05129720	        -13.46006948	         18.40382692	         95.85354021	        -19.56360447	        -13.56573336	         16.35700089	         11.43612272	          0.20772237	          0.06052032	          0.05000014	          0.13430508	          0.06849806	          0.05000057	          0.05000062	          0.05000014	          0.05000008	          0.05000008	          0.05000076	          0.31296360	          0.14498426	          0.05000051	          0.05001009	          0.08017155	          0.06174832	          0.05000360	          0.05000017	          0.05000283	          0.05000050	          0.05000022	          0.10345871	          0.57567017	          0.05000002	          0.05000011	          0.05000024	          0.25399365	          0.20464657	          0.20511141	          0.17750980	          0.31271966	          0.42311932	          0.19220700	          0.49850628	          0.49432368	          0.56923110	          0.05000000	          0.25079244	          0.22333765	          0.05000001	          0.05000001	          0.05000010	          0.61419274	          0.05000399	          0.05000082	          0.05000015	          0.05475747	          0.05475673	          0.05000153	          0.12108355	          0.06250204	          0.12035148	          0.11833259	          0.08702708	          0.07876688	          0.07876676	          0.05355777	          0.05000011	          0.28253164	          0.05000061	          0.07876960	          0.17848973	          0.05000032	          0.05000003	          0.35735977	          0.11901121	          0.12165474	          0.10015741	          0.14882695	          0.05996762	          0.05000001	          0.05000001	          0.05000001	          0.05000000	          0.05000000	          0.05000002	          0.05000000	          0.06567440	          0.09060985	          0.07877036	          0.44155140	          0.12387622	          0.13253665	          0.40447205	          0.65881429	          0.08711498	          0.33918765	          0.05000000	          0.09531633	          0.05000001	          0.17351091	          0.05000002	          0.10852402	
          1.72987514	         -6.94911619	          2.69351535	        -12.87295301	          2.29637438	          0.89449318	          0.01683656	         -9.80146572	         -3.60438241	         -0.38705874	        -17.72416767	          4.30059050	          0.15835535	         -1.47592362	         32.97370952	         34.23534555	         -3.13513711	         -5.61949740	        -13.49476745	          6.70336334	          1.24284199	         -1.79539965	          9.39245195	          2.93221646	          0.73383443	          1.80282984	          5.15262186	        -13.47124571	         18.62180990	         97.06732058	        -20.49443682	        -13.56354117	         15.88974436	         11.94597080	          0.18967438	          0.05526217	          0.05000068	          0.12263601	          0.06254693	          0.05000659	          0.05000093	          0.05000011	          0.05000009	          0.05000017	          0.05000323	          0.34217401	          0.17720631	          0.09733962	          0.05954152	          0.07320734	          0.05638509	          0.05736409	          0.05000088	          0.05000594	          0.05000162	          0.05000110	          0.09446968	          0.61608717	          0.05939853	          0.05935484	          0.05476664	          0.23192536	          0.23443990	          0.23381544	          0.20140821	          0.28554893	          0.38635652	          0.17550704	          0.47921607	          0.54685951	          0.58479232	          0.05000000	          0.22900227	          0.20393290	          0.05000008	          0.05000004	          0.05996708	          0.57001781	          0.05000001	          0.05000006	          0.05000210	          0.05000005	          0.05000008	          0.05000016	          0.11056318	          0.05707153	          0.10989471	          0.10805123	          0.08625821	          0.07192321	          0.07192311	          0.06609506	          0.05996796	          0.33144606	          0.05000031	          0.07192581	          0.16298162	          0.05000036	          0.07035892	          0.41523415	          0.10867089	          0.11108474	          0.14882138	          0.13589610	          0.05475767	          0.07192313	          0.05996795	          0.05996795	          0.05996795	          0.07013920	          0.07192322	          0.06685859	          0.05996827	          0.08273721	          0.07192640	          0.52358912	          0.24479035	          0.12102118	          0.36932939	          0.60157305	          0.07954598	          0.30971723	          0.05000001	          0.09396962	          0.05941819	          0.15843537	          0.05000000	          0.09909488	
